{"title":"Spectre.2015.420p.MICRO-REPACK","uid":13260380,"size":704946673,"categoryP":"video","categoryS":"movies","magnet":"?xt=urn:btih:a28acdf39bb28e39fabaf2a8394fa2a20225e697&amp;dn=Spectre.2015.420p.MICRO-REPACK&amp;tr=udp%3A%2F%2Ftracker.leechers-paradise.org%3A6969&amp;tr=udp%3A%2F%2Fzer0day.ch%3A1337&amp;tr=udp%3A%2F%2Fopen.demonii.com%3A1337&amp;tr=udp%3A%2F%2Ftracker.coppersurfer.tk%3A6969&amp;tr=udp%3A%2F%2Fexodus.desync.com%3A6969","seeders":0,"leechers":0,"uploader":"mr98321","files":2,"time":1453263344,"description":"MICRO-REPACK\r\n\r\nGeneral\r\nFormat                                   : MPEG-4\r\nFormat profile                           : Base Media / Version 2\r\nCodec ID                                 : mp42 (isom/iso2/avc1/mp41)\r\nFile size                                : 672 MiB\r\nDuration                                 : 2h 21mn\r\nOverall bit rate mode                    : Variable\r\nOverall bit rate                         : 665 Kbps\r\n\r\nVideo\r\nID                                       : 1\r\nFormat                                   : AVC\r\nFormat/Info                              : Advanced Video Codec\r\nFormat profile                           :   \r\nFormat settings, CABAC                   : Yes\r\nFormat settings, ReFrames                : 16 frames\r\nCodec ID                                 : avc1\r\nCodec ID/Info                            : Advanced Video Coding\r\nDuration                                 : 2h 21mn\r\nBit rate                                 : 467 Kbps\r\nWidth                                    : 848 pixels\r\nHeight                                   : 368 pixels\r\nDisplay aspect ratio                     : 2.40:1\r\nOriginal display aspect ratio            : 2.40:1\r\nFrame rate mode                          : Variable\r\nFrame rate                               : 23.976 (24000/1001) fps\r\nMinimum frame rate                       : 23.974 fps\r\nMaximum frame rate                       : 23.981 fps\r\nColor space                              : YUV\r\nChroma subsampling                       : 4:2:0\r\nBit depth                                : 8 bits\r\nScan type                                : Progressive\r\nBits/(Pixel*Frame)                       : 0.062\r\nStream size                              : 471 MiB (70%)\r\n\r\nAudio\r\nID                                       : 2\r\nFormat                                   : AAC\r\nFormat/Info                              : Advanced Audio Codec\r\nFormat profile                           : LC\r\nCodec ID                                 : 40\r\nDuration                                 : 2h 21mn\r\nBit rate mode                            : Variable\r\nBit rate                                 : 192 Kbps\r\nChannel(s)                               : 2 channels\r\nChannel positions                        : Front: L R\r\nSampling rate                            : 48.0 KHz\r\nFrame rate                               : 46.875 fps (1024 spf)\r\nCompression mode                         : Lossy\r\nStream size                              : 194 MiB (29%)","torrent":{"xt":"urn:btih:a28acdf39bb28e39fabaf2a8394fa2a20225e697","amp;dn":"Spectre.2015.420p.MICRO-REPACK","amp;tr":["udp%3A%2F%2Ftracker.leechers-paradise.org%3A6969","udp%3A%2F%2Fzer0day.ch%3A1337","udp%3A%2F%2Fopen.demonii.com%3A1337","udp%3A%2F%2Ftracker.coppersurfer.tk%3A6969","udp%3A%2F%2Fexodus.desync.com%3A6969"],"infoHash":"a28acdf39bb28e39fabaf2a8394fa2a20225e697","infoHashBuffer":{"type":"Buffer","data":[162,138,205,243,155,178,142,57,250,186,242,168,57,79,162,162,2,37,230,151]},"announce":[],"urlList":[]}}